<svg width="18" height="71" viewBox="0 0 18 71" fill="none" xmlns="http://www.w3.org/2000/svg">
<path d="M9.17326 17.8194C13.8551 17.8194 17.6856 13.8413 17.6856 8.97909C17.6856 4.11693 13.8551 0.138794 9.17326 0.138794C4.49146 0.138794 0.660889 4.11693 0.660889 8.97909C0.660889 13.8413 4.49146 17.8194 9.17326 17.8194ZM9.17326 26.6597C4.49146 26.6597 0.660889 30.6378 0.660889 35.5C0.660889 40.3622 4.49146 44.3403 9.17326 44.3403C13.8551 44.3403 17.6856 40.3622 17.6856 35.5C17.6856 30.6378 13.8551 26.6597 9.17326 26.6597ZM9.17326 53.1806C4.49146 53.1806 0.660889 57.1587 0.660889 62.0209C0.660889 66.883 4.49146 70.8612 9.17326 70.8612C13.8551 70.8612 17.6856 66.883 17.6856 62.0209C17.6856 57.1587 13.8551 53.1806 9.17326 53.1806Z" fill="#1C1B1B"/>
</svg>
