<svg width="183" height="87" viewBox="0 0 183 87" fill="none" xmlns="http://www.w3.org/2000/svg">
<path d="M73.9093 70.2801C73.2373 72.4241 72.5573 74.4081 71.8693 76.2321C71.1813 78.0561 70.4933 79.8321 69.8053 81.5601H67.4773C66.6293 79.1121 65.8773 76.5281 65.2213 73.8081C64.5813 71.0881 63.9813 68.1281 63.4213 64.9281H65.8693C66.0933 66.1761 66.3253 67.4241 66.5653 68.6721C66.8053 69.9201 67.0533 71.1361 67.3093 72.3201C67.5653 73.4881 67.8213 74.6081 68.0773 75.6801C68.3333 76.7521 68.5973 77.7441 68.8693 78.6561C69.5093 76.9761 70.1893 75.1361 70.9093 73.1361C71.6293 71.1201 72.3013 69.0401 72.9253 66.8961H74.9413C75.5653 69.0401 76.2453 71.1201 76.9813 73.1361C77.7173 75.1361 78.4053 76.9761 79.0453 78.6561C79.3013 77.7601 79.5573 76.7761 79.8133 75.7041C80.0693 74.6321 80.3173 73.5121 80.5573 72.3441C80.8133 71.1601 81.0613 69.9441 81.3013 68.6961C81.5413 67.4321 81.7733 66.1761 81.9973 64.9281H84.3733C83.7973 68.1281 83.1813 71.0881 82.5253 73.8081C81.8853 76.5281 81.1493 79.1121 80.3173 81.5601H77.9893C77.2853 79.8321 76.5973 78.0561 75.9253 76.2321C75.2533 74.4081 74.5813 72.4241 73.9093 70.2801ZM85.7233 75.3441C85.7233 74.2401 85.8833 73.2801 86.2033 72.4641C86.5233 71.6321 86.9473 70.9441 87.4753 70.4001C88.0033 69.8561 88.6113 69.4481 89.2993 69.1761C89.9873 68.9041 90.6913 68.7681 91.4113 68.7681C93.0913 68.7681 94.3793 69.2961 95.2753 70.3521C96.1713 71.3921 96.6193 72.9841 96.6193 75.1281C96.6193 75.2241 96.6193 75.3521 96.6193 75.5121C96.6193 75.6561 96.6113 75.7921 96.5953 75.9201H88.0513C88.1473 77.2161 88.5233 78.2001 89.1793 78.8721C89.8353 79.5441 90.8593 79.8801 92.2513 79.8801C93.0353 79.8801 93.6913 79.8161 94.2193 79.6881C94.7633 79.5441 95.1713 79.4081 95.4433 79.2801L95.7553 81.1521C95.4833 81.2961 95.0033 81.4481 94.3153 81.6081C93.6433 81.7681 92.8753 81.8481 92.0113 81.8481C90.9233 81.8481 89.9793 81.6881 89.1793 81.3681C88.3953 81.0321 87.7473 80.5761 87.2353 80.0001C86.7233 79.4241 86.3393 78.7441 86.0833 77.9601C85.8433 77.1601 85.7233 76.2881 85.7233 75.3441ZM94.2913 74.1201C94.3073 73.1121 94.0513 72.2881 93.5233 71.6481C93.0113 70.9921 92.2993 70.6641 91.3873 70.6641C90.8753 70.6641 90.4193 70.7681 90.0193 70.9761C89.6353 71.1681 89.3073 71.4241 89.0353 71.7441C88.7633 72.0641 88.5473 72.4321 88.3873 72.8481C88.2433 73.2641 88.1473 73.6881 88.0993 74.1201H94.2913ZM104.05 79.9521C104.578 79.9521 105.042 79.9441 105.442 79.9281C105.858 79.8961 106.202 79.8481 106.474 79.7841V76.0641C106.314 75.9841 106.05 75.9201 105.682 75.8721C105.33 75.8081 104.898 75.7761 104.386 75.7761C104.05 75.7761 103.69 75.8001 103.306 75.8481C102.938 75.8961 102.594 76.0001 102.274 76.1601C101.97 76.3041 101.714 76.5121 101.506 76.7841C101.298 77.0401 101.194 77.3841 101.194 77.8161C101.194 78.6161 101.45 79.1761 101.962 79.4961C102.474 79.8001 103.17 79.9521 104.05 79.9521ZM103.858 68.7681C104.754 68.7681 105.506 68.8881 106.114 69.1281C106.738 69.3521 107.234 69.6801 107.602 70.1121C107.986 70.5281 108.258 71.0321 108.418 71.6241C108.578 72.2001 108.658 72.8401 108.658 73.5441V81.3441C108.466 81.3761 108.194 81.4241 107.842 81.4881C107.506 81.5361 107.122 81.5841 106.69 81.6321C106.258 81.6801 105.786 81.7201 105.274 81.7521C104.778 81.8001 104.282 81.8241 103.786 81.8241C103.082 81.8241 102.434 81.7521 101.842 81.6081C101.25 81.4641 100.738 81.2401 100.306 80.9361C99.8735 80.6161 99.5375 80.2001 99.2975 79.6881C99.0575 79.1761 98.9375 78.5601 98.9375 77.8401C98.9375 77.1521 99.0735 76.5601 99.3455 76.0641C99.6335 75.5681 100.018 75.1681 100.498 74.8641C100.978 74.5601 101.538 74.3361 102.178 74.1921C102.818 74.0481 103.49 73.9761 104.194 73.9761C104.418 73.9761 104.65 73.9921 104.89 74.0241C105.13 74.0401 105.354 74.0721 105.562 74.1201C105.786 74.1521 105.978 74.1841 106.138 74.2161C106.298 74.2481 106.41 74.2721 106.474 74.2881V73.6641C106.474 73.2961 106.434 72.9361 106.354 72.5841C106.274 72.2161 106.13 71.8961 105.922 71.6241C105.714 71.3361 105.426 71.1121 105.058 70.9521C104.706 70.7761 104.242 70.6881 103.666 70.6881C102.93 70.6881 102.282 70.7441 101.722 70.8561C101.178 70.9521 100.77 71.0561 100.498 71.1681L100.234 69.3201C100.522 69.1921 101.002 69.0721 101.674 68.9601C102.346 68.8321 103.074 68.7681 103.858 68.7681ZM116.973 68.8161C117.165 68.8161 117.381 68.8321 117.621 68.8641C117.877 68.8801 118.125 68.9121 118.365 68.9601C118.605 68.9921 118.821 69.0321 119.013 69.0801C119.221 69.1121 119.373 69.1441 119.469 69.1761L119.085 71.1201C118.909 71.0561 118.613 70.9841 118.197 70.9041C117.797 70.8081 117.277 70.7601 116.637 70.7601C116.221 70.7601 115.805 70.8081 115.389 70.9041C114.989 70.9841 114.725 71.0401 114.597 71.0721V81.5601H112.365V69.6081C112.893 69.4161 113.549 69.2401 114.333 69.0801C115.117 68.9041 115.997 68.8161 116.973 68.8161Z" fill="#FEFEFE"/>
<g clip-path="url(#clip0)">
<path d="M21.0493 40.3089C21.0493 43.6575 20.252 46.1178 18.6573 47.6895C17.0626 49.2613 14.6013 50.0472 11.2733 50.0472C7.97995 50.0472 4.47862 49.8764 0.769287 49.5347V42.6154C3.47329 42.7862 6.24662 42.8717 9.08929 42.8717C9.88662 42.8717 10.5106 42.6495 10.9613 42.2053C11.4466 41.727 11.6893 41.0948 11.6893 40.3089V20.8323H4.92929V13.6567H21.0493V40.3089ZM32.213 49.5347H22.073L35.853 13.6567H46.253L60.033 49.5347H49.893L47.553 43.1279H34.553L32.213 49.5347ZM36.893 36.4649H45.213L41.053 24.4201L36.893 36.4649ZM62.631 13.6567H84.471C88.111 13.6567 90.7456 14.4768 92.375 16.1169C94.039 17.7229 94.871 20.3198 94.871 23.9076V29.033C94.871 32.6208 94.039 35.2348 92.375 36.8749C90.7456 38.4809 88.111 39.2839 84.471 39.2839H71.991V49.5347H62.631V13.6567ZM85.511 23.9076C85.511 21.8574 84.471 20.8323 82.391 20.8323H71.991V32.1083H82.391C84.471 32.1083 85.511 31.0832 85.511 29.033V23.9076ZM178.038 49.5347H168.158L155.678 28.0079V49.5347H146.318V13.6567H156.198L168.678 35.1835V13.6567H178.038V49.5347Z" fill="#FEFEFE"/>
<path d="M120.161 14.1764C130.022 14.1764 138.015 22.0915 138.015 31.8553C138.015 41.6191 130.022 49.5342 120.161 49.5342C110.301 49.5342 102.308 41.6191 102.308 31.8553C102.308 22.0915 110.301 14.1764 120.161 14.1764Z" fill="#BC002D"/>
</g>
<defs>
<clipPath id="clip0">
<rect width="182" height="63" fill="white" transform="translate(0.249268 0.560059)"/>
</clipPath>
</defs>
</svg>
