<svg width="168" height="59" viewBox="0 0 168 59" fill="none" xmlns="http://www.w3.org/2000/svg">
<path d="M19.2 37.2249C19.2 40.3609 18.464 42.6649 16.992 44.1369C15.52 45.6089 13.248 46.3449 10.176 46.3449C7.136 46.3449 3.904 46.1849 0.48 45.8649V39.3849C2.976 39.5449 5.536 39.6249 8.16 39.6249C8.896 39.6249 9.472 39.4169 9.888 39.0009C10.336 38.5529 10.56 37.9609 10.56 37.2249V18.9849H4.32V12.2649H19.2V37.2249ZM29.505 45.8649H20.145L32.865 12.2649H42.465L55.185 45.8649H45.825L43.665 39.8649H31.665L29.505 45.8649ZM33.825 33.6249H41.505L37.665 22.3449L33.825 33.6249ZM57.5831 12.2649H77.7431C81.1031 12.2649 83.5351 13.0329 85.0391 14.5689C86.5751 16.0729 87.3431 18.5049 87.3431 21.8649V26.6649C87.3431 30.0249 86.5751 32.4729 85.0391 34.0089C83.5351 35.5129 81.1031 36.2649 77.7431 36.2649H66.2231V45.8649H57.5831V12.2649ZM78.7031 21.8649C78.7031 19.9449 77.7431 18.9849 75.8231 18.9849H66.2231V29.5449H75.8231C77.7431 29.5449 78.7031 28.5849 78.7031 26.6649V21.8649ZM164.113 45.8649H154.993L143.473 25.7049V45.8649H134.833V12.2649H143.953L155.473 32.4249V12.2649H164.113V45.8649Z" fill="#1C1B1B"/>
<ellipse rx="16.4802" ry="16.5564" transform="matrix(1 0 0 -1 110.688 29.3084)" fill="#BC002D"/>
</svg>
