<svg width="125" height="44" viewBox="0 0 125 44" fill="none" xmlns="http://www.w3.org/2000/svg">
<g clip-path="url(#clip0)">
<path d="M14.7961 27.4708C14.7961 29.7563 14.2529 31.4355 13.1664 32.5083C12.08 33.5811 10.403 34.1176 8.13558 34.1176C5.89177 34.1176 3.50624 34.0009 0.979004 33.7677V29.045C2.82129 29.1616 4.71081 29.2199 6.64757 29.2199C7.19081 29.2199 7.61596 29.0683 7.923 28.7651C8.25367 28.4386 8.419 28.0072 8.419 27.4708V14.1772H3.81329V9.27959H14.7961V27.4708ZM22.4022 33.7677H15.4936L24.8822 9.27959H31.9679L41.3565 33.7677H34.4479L32.8536 29.3948H23.9965L22.4022 33.7677ZM25.5908 24.847H31.2594L28.4251 16.626L25.5908 24.847ZM43.1265 9.27959H58.0065C60.4865 9.27959 62.2816 9.83932 63.3917 10.9588C64.5254 12.0549 65.0922 13.8274 65.0922 16.2762V19.7745C65.0922 22.2233 64.5254 24.0075 63.3917 25.1269C62.2816 26.223 60.4865 26.7711 58.0065 26.7711H49.5037V33.7677H43.1265V9.27959ZM58.7151 16.2762C58.7151 14.8769 58.0065 14.1772 56.5894 14.1772H49.5037V21.8735H56.5894C58.0065 21.8735 58.7151 21.1738 58.7151 19.7745V16.2762ZM121.756 33.7677H115.024L106.521 19.0748V33.7677H100.144V9.27959H106.876L115.379 23.9725V9.27959H121.756V33.7677Z" fill="#FEFEFE"/>
<path d="M82.323 9.63458C89.041 9.63458 94.487 15.037 94.487 21.7011C94.487 28.3653 89.041 33.7676 82.323 33.7676C75.605 33.7676 70.1591 28.3653 70.1591 21.7011C70.1591 15.037 75.605 9.63458 82.323 9.63458Z" fill="#BC002D"/>
</g>
<defs>
<clipPath id="clip0">
<rect width="124" height="43" fill="white" transform="translate(0.624756 0.340759)"/>
</clipPath>
</defs>
</svg>
