<svg width="27" height="27" viewBox="0 0 27 27" fill="none" xmlns="http://www.w3.org/2000/svg">
<g clip-path="url(#clip0)">
<path d="M19.3184 17.2203C20.8674 15.1067 21.5611 12.4861 21.2609 9.88295C20.9607 7.27978 19.6886 4.88596 17.6992 3.1804C15.7098 1.47485 13.1498 0.583336 10.5313 0.684231C7.91282 0.785125 5.42899 1.87099 3.57673 3.72457C1.72447 5.57815 0.640389 8.06276 0.541368 10.6813C0.442347 13.2999 1.33569 15.8593 3.04267 17.8474C4.74965 19.8356 7.14438 21.1059 9.74777 21.4043C12.3512 21.7027 14.9712 21.007 17.0837 19.4566H17.0821C17.1301 19.5206 17.1813 19.5814 17.2389 19.6406L23.3975 25.7992C23.6975 26.0994 24.1044 26.2681 24.5287 26.2682C24.953 26.2684 25.3601 26.0999 25.6602 25.8C25.9604 25.5001 26.1291 25.0932 26.1292 24.6688C26.1294 24.2445 25.961 23.8375 25.661 23.5373L19.5024 17.3787C19.4452 17.3208 19.3837 17.2673 19.3184 17.2187V17.2203ZM19.7311 11.0713C19.7311 12.2266 19.5036 13.3707 19.0614 14.4381C18.6193 15.5056 17.9712 16.4754 17.1542 17.2924C16.3373 18.1094 15.3674 18.7575 14.2999 19.1996C13.2325 19.6417 12.0885 19.8693 10.9331 19.8693C9.7777 19.8693 8.63364 19.6417 7.56621 19.1996C6.49878 18.7575 5.52889 18.1094 4.71191 17.2924C3.89493 16.4754 3.24687 15.5056 2.80473 14.4381C2.36259 13.3707 2.13502 12.2266 2.13502 11.0713C2.13502 8.73786 3.06195 6.50004 4.71191 4.85009C6.36187 3.20013 8.59969 2.2732 10.9331 2.2732C13.2665 2.2732 15.5043 3.20013 17.1542 4.85009C18.8042 6.50004 19.7311 8.73786 19.7311 11.0713Z" fill="#B4B1B1"/>
</g>
<defs>
<clipPath id="clip0">
<rect width="25.5944" height="25.5944" fill="white" transform="translate(0.535919 0.672363)"/>
</clipPath>
</defs>
</svg>
