<svg width="375" height="39" viewBox="0 0 375 39" fill="none" xmlns="http://www.w3.org/2000/svg">
<rect width="375" height="39" fill="#1C1B1B" fill-opacity="0.19"/>
<path d="M33.3035 20.8809C33.3035 19.7969 33.6697 18.9082 34.4021 18.2148C35.1395 17.5166 36.0818 17.1675 37.2293 17.1675C38.0008 17.1675 38.6844 17.3457 39.2801 17.7021C39.8758 18.0586 40.3519 18.5762 40.7083 19.2549C41.2063 20.1387 41.4554 21.252 41.4554 22.5947C41.4554 24.3721 41.077 25.7612 40.3201 26.7622C39.5633 27.7583 38.5135 28.2563 37.1707 28.2563C36.2039 28.2563 35.3812 27.9951 34.7024 27.4727C34.0237 26.9453 33.6062 26.2471 33.45 25.3779H35.3323C35.4544 25.7783 35.679 26.0957 36.0062 26.3301C36.3382 26.5596 36.7312 26.6743 37.1854 26.6743C37.9568 26.6743 38.5599 26.335 38.9944 25.6562C39.429 24.9727 39.6463 24.0254 39.6463 22.8145H39.5804H39.5437H39.5218C39.2728 23.3174 38.909 23.708 38.4305 23.9863C37.952 24.2598 37.4026 24.3965 36.7825 24.3965C35.7767 24.3965 34.9441 24.0645 34.285 23.4004C33.6307 22.7363 33.3035 21.8965 33.3035 20.8809ZM35.1565 20.8223C35.1565 21.4277 35.3519 21.9258 35.7425 22.3164C36.1331 22.7021 36.6312 22.895 37.2366 22.895C37.8421 22.895 38.3426 22.7021 38.7381 22.3164C39.1336 21.9307 39.3313 21.4424 39.3313 20.8516C39.3313 20.2559 39.1312 19.7554 38.7308 19.3501C38.3304 18.9448 37.8348 18.7422 37.2439 18.7422C36.6531 18.7422 36.1575 18.9424 35.7571 19.3428C35.3567 19.7383 35.1565 20.2314 35.1565 20.8223ZM43.3746 26.9966C43.3746 26.6597 43.4845 26.3838 43.7042 26.1689C43.9239 25.9492 44.2047 25.8394 44.5465 25.8394C44.8932 25.8394 45.1739 25.9492 45.3888 26.1689C45.6085 26.3838 45.7184 26.6597 45.7184 26.9966C45.7184 27.3286 45.6085 27.6045 45.3888 27.8242C45.1739 28.0439 44.8932 28.1538 44.5465 28.1538C44.2047 28.1538 43.9239 28.0439 43.7042 27.8242C43.4845 27.6045 43.3746 27.3286 43.3746 26.9966ZM43.3746 21.5107C43.3746 21.1738 43.4845 20.8979 43.7042 20.6831C43.9239 20.4634 44.2047 20.3535 44.5465 20.3535C44.8932 20.3535 45.1739 20.4634 45.3888 20.6831C45.6085 20.8979 45.7184 21.1738 45.7184 21.5107C45.7184 21.8428 45.6085 22.1187 45.3888 22.3384C45.1739 22.5532 44.8932 22.6606 44.5465 22.6606C44.2047 22.6606 43.9239 22.5532 43.7042 22.3384C43.4845 22.1187 43.3746 21.8428 43.3746 21.5107ZM47.4105 26.0298V24.3452C48.2699 22.7632 49.7055 20.4585 51.7172 17.4312H54.3832V24.4331H55.8114V26.0298H54.3832V28H52.5741V26.0298H47.4105ZM49.161 24.4771H52.6034V18.9692H52.5009C51.3583 20.6587 50.245 22.458 49.161 24.3672V24.4771ZM57.0861 21.1812V19.3647L59.8474 17.4312H61.7297V28H59.84V19.3354H59.7155L57.0861 21.1812Z" fill="#333333"/>
<rect opacity="0.35" x="336.833" y="15.8333" width="21" height="10.3333" rx="2.16667" stroke="#333333"/>
<path opacity="0.4" d="M359.333 19V23C360.138 22.6612 360.661 21.8731 360.661 21C360.661 20.1269 360.138 19.3388 359.333 19Z" fill="#333333"/>
<rect x="338.333" y="17.3333" width="18" height="7.33333" rx="1.33333" fill="#333333"/>
<path fill-rule="evenodd" clip-rule="evenodd" d="M323.667 17.6152C325.892 17.6153 328.031 18.4694 329.644 20.001C329.765 20.1192 329.959 20.1177 330.079 19.9976L331.239 18.8273C331.3 18.7664 331.334 18.6839 331.333 18.598C331.333 18.5122 331.298 18.4301 331.237 18.3699C327.005 14.3176 320.329 14.3176 316.097 18.3699C316.035 18.43 316.001 18.5121 316 18.598C315.999 18.6838 316.033 18.7663 316.094 18.8273L317.255 19.9976C317.374 20.1179 317.568 20.1194 317.69 20.001C319.302 18.4693 321.442 17.6152 323.667 17.6152ZM323.667 21.4227C324.889 21.4227 326.068 21.8766 326.974 22.6964C327.097 22.8127 327.29 22.8102 327.409 22.6907L328.569 21.5204C328.63 21.459 328.663 21.3757 328.663 21.2892C328.662 21.2027 328.626 21.1201 328.564 21.0599C325.805 18.4955 321.532 18.4955 318.773 21.0599C318.71 21.1201 318.675 21.2027 318.674 21.2893C318.673 21.3758 318.707 21.4591 318.768 21.5204L319.927 22.6907C320.047 22.8102 320.24 22.8127 320.362 22.6964C321.268 21.8772 322.446 21.4233 323.667 21.4227ZM325.989 23.9846C325.991 24.0714 325.957 24.155 325.895 24.2158L323.89 26.2378C323.831 26.2972 323.751 26.3307 323.667 26.3307C323.583 26.3307 323.503 26.2972 323.445 26.2378L321.439 24.2158C321.377 24.155 321.343 24.0713 321.345 23.9845C321.347 23.8977 321.384 23.8156 321.449 23.7574C322.729 22.6751 324.605 22.6751 325.886 23.7574C325.95 23.8156 325.988 23.8978 325.989 23.9846Z" fill="#333333"/>
<path fill-rule="evenodd" clip-rule="evenodd" d="M310 15.6667H309C308.448 15.6667 308 16.1144 308 16.6667V25.3333C308 25.8856 308.448 26.3333 309 26.3333H310C310.552 26.3333 311 25.8856 311 25.3333V16.6667C311 16.1144 310.552 15.6667 310 15.6667ZM304.333 18H305.333C305.886 18 306.333 18.4477 306.333 19V25.3333C306.333 25.8856 305.886 26.3333 305.333 26.3333H304.333C303.781 26.3333 303.333 25.8856 303.333 25.3333V19C303.333 18.4477 303.781 18 304.333 18ZM300.667 20.3333H299.667C299.114 20.3333 298.667 20.781 298.667 21.3333V25.3333C298.667 25.8856 299.114 26.3333 299.667 26.3333H300.667C301.219 26.3333 301.667 25.8856 301.667 25.3333V21.3333C301.667 20.781 301.219 20.3333 300.667 20.3333ZM296 22.3333H295C294.448 22.3333 294 22.781 294 23.3333V25.3333C294 25.8856 294.448 26.3333 295 26.3333H296C296.552 26.3333 297 25.8856 297 25.3333V23.3333C297 22.781 296.552 22.3333 296 22.3333Z" fill="#333333"/>
</svg>
